<svg xmlns="http://www.w3.org/2000/svg" viewBox="0 0 1024 1024">
  <defs>
    <!-- Background: deep navy, lighter at centre -->
    <radialGradient id="bgGrad" cx="48%" cy="46%" r="58%">
      <stop offset="0%" stop-color="#0F182E"/>
      <stop offset="100%" stop-color="#030812"/>
    </radialGradient>
    <!-- Warm orange glow around the langoustine -->
    <radialGradient id="glowOrange" cx="54%" cy="50%" r="38%">
      <stop offset="0%" stop-color="#F97316" stop-opacity="0.14"/>
      <stop offset="100%" stop-color="#F97316" stop-opacity="0"/>
    </radialGradient>
    <!-- Main body gradient: dark orange (tail) → vivid orange → light orange (rostrum) -->
    <linearGradient id="bodyGrad" x1="240" y1="690" x2="730" y2="315" gradientUnits="userSpaceOnUse">
      <stop offset="0%"   stop-color="#C2410C"/>
      <stop offset="42%"  stop-color="#F97316"/>
      <stop offset="100%" stop-color="#FB923C"/>
    </linearGradient>
    <!-- Fan gradient: slightly less vivid -->
    <linearGradient id="fanGrad" x1="280" y1="630" x2="155" y2="725" gradientUnits="userSpaceOnUse">
      <stop offset="0%"   stop-color="#EA580C"/>
      <stop offset="100%" stop-color="#9A3412"/>
    </linearGradient>
  </defs>

  <!-- ═══════════════════════════════════════════════════ -->
  <!-- BACKGROUND                                          -->
  <!-- ═══════════════════════════════════════════════════ -->
  <rect width="1024" height="1024" rx="224" fill="url(#bgGrad)"/>
  <rect width="1024" height="1024" rx="224" fill="url(#glowOrange)"/>

  <!-- ═══════════════════════════════════════════════════ -->
  <!-- TAIL FAN  (5 leaf-blades, centre ≈ 248,658)        -->
  <!-- ═══════════════════════════════════════════════════ -->

  <!-- Dark outline layer (slightly larger) -->
  <g fill="#9A3412">
    <path d="M248,658 Q259,692 234,752 Q222,688 248,658 Z"/>
    <path d="M248,658 Q242,696 196,740 Q216,676 248,658 Z"/>
    <path d="M248,658 Q226,692 166,716 Q209,665 248,658 Z"/>
    <path d="M248,658 Q216,681 153,681 Q213,647 248,658 Z"/>
    <path d="M248,658 Q212,669 152,641 Q217,633 248,658 Z"/>
  </g>

  <!-- Colour layer -->
  <g fill="url(#fanGrad)">
    <path d="M248,656 Q257,688 232,748 Q220,684 248,656 Z"/>
    <path d="M248,656 Q240,692 194,736 Q214,672 248,656 Z"/>
    <path d="M248,656 Q225,690 165,712 Q207,663 248,656 Z"/>
    <path d="M248,656 Q215,677 152,677 Q211,643 248,656 Z"/>
    <path d="M248,656 Q210,665 151,638 Q215,630 248,656 Z"/>
  </g>

  <!-- Pale highlight tips -->
  <g fill="#FED7AA" fill-opacity="0.35">
    <ellipse cx="224" cy="732" rx="13" ry="6" transform="rotate(10 224 732)"/>
    <ellipse cx="186" cy="720" rx="13" ry="6" transform="rotate(-10 186 720)"/>
    <ellipse cx="167" cy="696" rx="12" ry="5" transform="rotate(-30 167 696)"/>
    <ellipse cx="164" cy="668" rx="11" ry="5" transform="rotate(-55 164 668)"/>
    <ellipse cx="169" cy="643" rx="11" ry="5" transform="rotate(-75 169 643)"/>
  </g>

  <!-- ═══════════════════════════════════════════════════ -->
  <!-- WALKING LEGS  (5 pairs, small curves under abdomen) -->
  <!-- ═══════════════════════════════════════════════════ -->
  <g stroke="#C2410C" stroke-width="4" fill="none" stroke-linecap="round">
    <path d="M558,493 C551,516 540,540 532,558"/>
    <path d="M572,486 C578,509 580,535 574,554"/>
    <path d="M494,533 C486,556 475,580 467,598"/>
    <path d="M509,526 C516,549 517,574 511,593"/>
    <path d="M430,567 C422,590 411,613 403,631"/>
    <path d="M446,560 C453,583 454,608 447,627"/>
    <path d="M366,599 C358,622 347,645 340,662"/>
    <path d="M382,593 C390,615 390,639 383,658"/>
    <path d="M306,630 C297,650 287,673 281,689"/>
    <path d="M323,622 C331,644 330,667 323,686"/>
  </g>

  <!-- ═══════════════════════════════════════════════════ -->
  <!-- ABDOMEN  (segmented tail section)                   -->
  <!-- ═══════════════════════════════════════════════════ -->

  <!-- Shadow offset -->
  <path d="
    M268,684
    C301,674 335,654 361,640
    C407,614 457,578 488,553
    C506,539 522,524 533,510
    C546,494 558,483 561,476
    C533,470 511,456 499,440
    C483,452 461,470 446,488
    C429,506 408,525 381,543
    C351,563 303,594 270,616
    C261,622 247,637 244,660
    Z
  " fill="#7C2D12"/>

  <!-- Main colour -->
  <path d="
    M266,678
    C299,668 332,648 358,634
    C403,608 453,572 485,547
    C503,533 518,519 529,505
    C541,489 552,479 556,471
    C528,465 507,450 495,434
    C479,446 457,465 442,483
    C425,501 404,520 377,538
    C347,558 299,589 266,611
    C258,617 244,633 241,653
    Z
  " fill="url(#bodyGrad)"/>

  <!-- Segment divider lines -->
  <g stroke="#9A3412" stroke-width="3.5" fill="none" stroke-linecap="round">
    <line x1="321" y1="624" x2="363" y2="658"/>
    <line x1="381" y1="572" x2="423" y2="606"/>
    <line x1="440" y1="520" x2="482" y2="554"/>
    <line x1="485" y1="485" x2="519" y2="511"/>
    <line x1="516" y1="460" x2="547" y2="480"/>
  </g>

  <!-- ═══════════════════════════════════════════════════ -->
  <!-- CARAPACE  (head + thorax shield)                    -->
  <!-- ═══════════════════════════════════════════════════ -->

  <!-- Shadow -->
  <path d="
    M496,458
    C526,404 603,350 699,314
    C751,292 807,282 825,292
    C823,312 801,344 763,372
    C731,393 707,413 679,437
    C662,450 641,464 619,472
    C597,480 560,474 541,470
    C518,462 503,460 496,458
    Z
  " fill="#7C2D12"/>

  <!-- Main colour -->
  <path d="
    M495,452
    C525,397 602,343 697,307
    C749,285 805,275 822,286
    C820,304 799,336 761,364
    C729,385 705,405 677,429
    C659,443 638,458 616,466
    C593,474 557,468 538,464
    C515,455 500,454 495,452
    Z
  " fill="url(#bodyGrad)"/>

  <!-- Dorsal shine stripe -->
  <path d="
    M541,382
    C571,350 636,318 711,300
    C755,290 801,284 821,286
    C815,298 797,314 767,325
    C737,336 705,342 673,347
    C645,351 611,354 583,358
    C564,361 546,368 541,382
    Z
  " fill="white" fill-opacity="0.11"/>

  <!-- ═══════════════════════════════════════════════════ -->
  <!-- ROSTRUM  (forward-pointing spike)                   -->
  <!-- ═══════════════════════════════════════════════════ -->
  <path d="M751,358 C776,332 801,304 829,287 C821,283 811,283 801,286 C779,302 757,326 743,350 Z" fill="#9A3412"/>
  <path d="M749,352 C774,326 799,298 827,282 C819,278 809,278 799,281 C776,297 754,322 741,346 Z" fill="#FB923C"/>
  <path d="M749,347 C766,330 787,307 808,292 C800,280 790,279 782,281 C764,294 748,316 741,336 Z" fill="white" fill-opacity="0.16"/>

  <!-- ═══════════════════════════════════════════════════ -->
  <!-- EYE                                                 -->
  <!-- ═══════════════════════════════════════════════════ -->
  <line x1="725" y1="390" x2="723" y2="370" stroke="#C2410C" stroke-width="5.5" stroke-linecap="round"/>
  <circle cx="719" cy="364" r="16" fill="#1A0500"/>
  <circle cx="719" cy="364" r="12" fill="white"/>
  <circle cx="721" cy="362" r="7"  fill="#050B18"/>
  <circle cx="724" cy="359" r="3"  fill="white" fill-opacity="0.9"/>

  <!-- ═══════════════════════════════════════════════════ -->
  <!-- LOWER CLAW                                          -->
  <!-- ═══════════════════════════════════════════════════ -->
  <!-- Arm shadow -->
  <path d="M677,452 C707,443 741,432 773,421 C779,419 785,420 785,426 C784,432 779,436 771,440 C738,451 704,462 674,472 C673,473 669,470 668,463 Z" fill="#9A3412"/>
  <!-- Arm colour -->
  <path d="M678,447 C708,437 742,426 773,416 C779,413 785,414 784,420 C783,426 778,430 770,434 C737,445 703,457 673,467 C672,468 669,465 668,458 Z" fill="#EA580C"/>
  <!-- Fixed finger -->
  <path d="M773,416 C787,408 803,404 811,410 C813,415 807,424 794,428 C783,432 769,431 768,425 Z" fill="#F97316"/>
  <!-- Mobile finger -->
  <path d="M773,416 C785,422 798,431 801,438 C802,443 795,446 785,440 C775,434 767,424 765,417 Z" fill="#C2410C"/>

  <!-- ═══════════════════════════════════════════════════ -->
  <!-- UPPER CLAW                                          -->
  <!-- ═══════════════════════════════════════════════════ -->
  <!-- Arm shadow -->
  <path d="M685,424 C715,404 753,382 789,363 C795,360 801,361 802,366 C801,372 795,377 787,381 C752,399 714,421 683,441 C682,442 678,440 677,432 Z" fill="#9A3412"/>
  <!-- Arm colour -->
  <path d="M686,418 C716,398 754,376 789,357 C795,354 801,355 802,360 C801,366 795,370 786,374 C751,392 713,415 682,435 C681,436 677,434 676,426 Z" fill="#F97316"/>
  <!-- Fixed finger -->
  <path d="M789,357 C808,343 826,334 832,340 C835,346 827,358 814,364 C802,370 787,372 785,366 Z" fill="#FB923C"/>
  <!-- Mobile finger -->
  <path d="M789,357 C803,361 818,372 822,379 C824,385 816,389 806,382 C795,375 785,364 783,357 Z" fill="#EA580C"/>

  <!-- ═══════════════════════════════════════════════════ -->
  <!-- ANTENNAE  (brand emerald-green)                     -->
  <!-- ═══════════════════════════════════════════════════ -->
  <!-- Two long main antennae -->
  <g stroke="#34D399" stroke-width="5.5" fill="none" stroke-linecap="round">
    <path d="M763,360 C791,330 837,285 879,248 C913,218 947,198 971,190"/>
    <path d="M757,372 C785,354 826,330 865,308 C897,290 929,280 955,278"/>
  </g>
  <!-- Two short antennules (thinner, lighter) -->
  <g stroke="#6EE7B7" stroke-width="3.5" fill="none" stroke-linecap="round">
    <path d="M756,368 C763,352 775,336 785,325"/>
    <path d="M759,374 C769,360 783,348 795,340"/>
  </g>

  <!-- ═══════════════════════════════════════════════════ -->
  <!-- OVERALL DORSAL SHINE                               -->
  <!-- ═══════════════════════════════════════════════════ -->
  <path d="
    M315,582
    C384,538 463,492 539,452
    C598,420 658,398 714,376
    C740,367 765,357 783,350
    C776,342 765,338 755,340
    C738,346 716,354 694,362
    C638,384 578,406 518,438
    C442,477 362,525 293,566
    C288,570 282,580 288,590
    Z
  " fill="white" fill-opacity="0.09"/>

  <!-- ═══════════════════════════════════════════════════ -->
  <!-- BRAND-GREEN ACCENT DOTS on dorsal carapace ridge    -->
  <!-- ═══════════════════════════════════════════════════ -->
  <circle cx="602" cy="370" r="5"  fill="#34D399" fill-opacity="0.45"/>
  <circle cx="652" cy="352" r="4"  fill="#34D399" fill-opacity="0.35"/>
  <circle cx="700" cy="338" r="3.5" fill="#34D399" fill-opacity="0.28"/>
</svg>
